# 大國造形 サンプルデータ
# パーツ構成: ベース・ポスト・キャップ の3パーツ
# 単位: mm
#
# 頂点番号の割り当て
#   1 - 8  : ベース
#   9 - 16 : ポスト
#  17 - 24 : キャップ

# ────────────────────────────────────────────
# パーツ1: ベース (60 x 5 x 60 mm)
# ────────────────────────────────────────────
o Base

v -30  0 -30
v  30  0 -30
v  30  5 -30
v -30  5 -30
v -30  0  30
v  30  0  30
v  30  5  30
v -30  5  30

f  1  3  2
f  1  4  3
f  5  6  7
f  5  7  8
f  1  5  8
f  1  8  4
f  2  3  7
f  2  7  6
f  1  2  6
f  1  6  5
f  4  7  3
f  4  8  7

# ────────────────────────────────────────────
# パーツ2: ポスト (10 x 40 x 10 mm)
# ────────────────────────────────────────────
o Post

v  -5  5 -5
v   5  5 -5
v   5 45 -5
v  -5 45 -5
v  -5  5  5
v   5  5  5
v   5 45  5
v  -5 45  5

f  9 11 10
f  9 12 11
f 13 14 15
f 13 15 16
f  9 13 16
f  9 16 12
f 10 11 15
f 10 15 14
f  9 10 14
f  9 14 13
f 12 15 11
f 12 16 15

# ────────────────────────────────────────────
# パーツ3: キャップ (30 x 10 x 30 mm)
# ────────────────────────────────────────────
o Cap

v -15 45 -15
v  15 45 -15
v  15 55 -15
v -15 55 -15
v -15 45  15
v  15 45  15
v  15 55  15
v -15 55  15

f 17 19 18
f 17 20 19
f 21 22 23
f 21 23 24
f 17 21 24
f 17 24 20
f 18 19 23
f 18 23 22
f 17 18 22
f 17 22 21
f 20 23 19
f 20 24 23
